<?xml version="1.0" encoding="UTF-8"?>
<svg xmlns="http://www.w3.org/2000/svg" xmlns:xlink="http://www.w3.org/1999/xlink" viewBox="0 0 250 250" width="250px" height="250px">
<g id="surface15171383">
<path style=" stroke:none;fill-rule:nonzero;fill:rgb(100%,100%,100%);fill-opacity:1;" d="M 27.5 35 C 15.097656 35 5 45.097656 5 57.5 L 5 59.628906 L 125 145 L 245 59.628906 L 245 57.5 C 245 45.097656 234.902344 35 222.5 35 Z M 31.757812 45 L 218.222656 45 L 125 110 Z M 5 70.136719 L 5 192.5 C 5 204.902344 15.097656 215 27.5 215 L 222.5 215 C 234.902344 215 245 204.902344 245 192.5 L 245 70.136719 L 215 91.484375 L 215 205 L 35 205 L 35 91.484375 Z M 5 70.136719 "/>
</g>
</svg>
